<svg width="115" height="115" viewBox="0 0 115 115" fill="none" xmlns="http://www.w3.org/2000/svg">
<path fill-rule="evenodd" clip-rule="evenodd" d="M67.5456 0.924316C66.725 0.924316 65.963 1.10029 65.2596 1.33491C66.7543 2.33206 67.5749 3.65183 67.9852 5.14755C68.0146 5.35284 68.0732 5.49949 68.1025 5.70478C68.1319 5.88075 68.1611 6.05672 68.1611 6.23269C68.2784 8.81355 67.487 9.13615 66.9302 10.6612C66.0802 12.6262 66.3147 14.7378 67.3405 16.4388C67.4284 16.6441 67.5456 16.8787 67.6922 17.084C66.5785 9.66406 72.7624 8.5496 73.9054 6.23269C73.9933 4.20905 72.3228 2.85996 71.004 1.92147C69.7437 1.15894 68.6007 0.924316 67.5456 0.924316V0.924316ZM76.8655 2.59601C76.7482 3.27056 76.8362 3.09459 76.8069 3.44653C76.7776 3.68115 76.7776 3.97443 76.7484 4.20905C76.6898 4.44368 76.6311 4.6783 76.5432 4.91293C76.4846 5.14755 76.3967 5.38218 76.3087 5.61679C76.1915 5.85143 76.1036 6.05672 75.9864 6.29134C75.8984 6.4087 75.8398 6.52596 75.7519 6.64328C75.6933 6.73126 75.6346 6.81925 75.5761 6.90723C75.4295 7.11254 75.283 7.31782 75.1364 7.49379C74.9606 7.66976 74.8141 7.87505 74.6089 8.0217C74.6089 8.05107 74.6089 8.05107 74.6089 8.05107C74.433 8.19771 74.2572 8.37367 74.052 8.52031C73.4366 8.98955 72.7332 9.34149 72.0884 9.78142C71.8833 9.92805 71.6781 10.0454 71.5023 10.2213C71.2971 10.368 71.1213 10.5146 70.9454 10.6906C70.7403 10.8665 70.5937 11.0425 70.4179 11.2478C70.2713 11.4238 70.0955 11.6291 69.9783 11.8344C69.8317 12.0397 69.6852 12.245 69.568 12.4503C69.4507 12.6849 69.3628 12.8902 69.2456 13.1248C69.1576 13.3594 69.0697 13.5647 69.0111 13.7993C68.9232 14.0633 68.8646 14.2979 68.806 14.5326C68.7766 14.6499 68.7766 14.7965 68.7474 14.9138C68.718 15.0312 68.718 15.1484 68.6888 15.2658C68.6888 15.5004 68.6595 15.7643 68.6595 15.9989C68.6595 16.1749 68.6595 16.3509 68.6888 16.5269C68.6888 16.7615 68.7182 16.9961 68.7767 17.2601C68.8061 17.4947 68.8646 17.7293 68.9233 17.9639C69.0112 18.1986 69.0698 18.4332 69.1577 18.6678C69.2163 18.8144 69.3043 18.9611 69.3629 19.0784L62.6221 16.4682C61.4791 16.1456 60.3654 15.8523 59.2224 15.5884C58.6069 15.4417 57.9915 15.2951 57.376 15.1484C55.6175 14.7965 53.8298 14.5326 52.042 14.3566C51.9834 14.3566 51.9541 14.3272 51.8955 14.3272C50.137 14.1513 48.4078 14.0633 46.6494 14.0633C45.3598 14.0633 44.0703 14.1219 42.81 14.2099C41.0223 14.3273 39.2345 14.5618 37.4467 14.8551C37.0071 14.9137 36.5675 15.0018 36.1279 15.0898C35.2193 15.2657 34.3401 15.471 33.4902 15.6763C33.0506 15.7937 32.6109 15.9109 32.1713 16.0282C31.7317 16.2042 31.3214 16.4095 30.9111 16.5855C30.5887 16.7321 30.2663 16.8788 29.9439 17.0254C29.8854 17.0548 29.8267 17.0548 29.7974 17.084C29.5043 17.2306 29.2405 17.348 28.9768 17.4946C28.8889 17.524 28.8302 17.5532 28.7716 17.5826C28.4492 17.7292 28.1269 17.9052 27.8631 18.0518C27.6579 18.1398 27.4528 18.2571 27.2769 18.3451C27.189 18.4037 27.0718 18.4625 27.0132 18.4918C26.7494 18.6384 26.4856 18.785 26.2512 18.9317C25.9874 19.0783 25.7529 19.2249 25.5478 19.3716C25.3426 19.5182 25.1375 19.6355 24.9616 19.7822C24.9322 19.8115 24.903 19.8115 24.8737 19.8408C24.6978 19.9581 24.4927 20.1047 24.3168 20.2514C24.3168 20.2514 24.2875 20.2808 24.2583 20.31C24.1117 20.4274 23.9652 20.5446 23.8186 20.6619C23.7601 20.6913 23.7014 20.7499 23.6428 20.7793C23.4963 20.8966 23.3497 21.0432 23.2032 21.1606C23.1738 21.2192 23.1153 21.2485 23.0859 21.2779C22.9101 21.4539 22.7342 21.6005 22.5584 21.7765C22.529 21.7765 22.529 21.8059 22.4998 21.8351C22.324 21.9817 22.1481 22.1577 21.9723 22.3337C21.9429 22.363 21.9429 22.3923 21.9137 22.3923C21.7672 22.5389 21.6206 22.6856 21.4741 22.8615C21.4155 22.9201 21.3275 22.9789 21.2689 23.0375C21.1224 23.2135 20.9465 23.3894 20.7707 23.5654C20.7413 23.624 20.6828 23.6534 20.6534 23.712C20.419 23.9467 20.2138 24.1813 19.9793 24.4159C19.95 24.4453 19.9208 24.4745 19.8914 24.5039C19.4225 25.0025 18.9242 25.5011 18.3967 25.941C17.8692 26.4102 17.3123 26.8501 16.7555 27.2314C16.1693 27.642 15.6125 27.9939 14.997 28.3459C14.4108 28.6685 13.7954 28.9618 13.1506 29.2257C12.5351 29.4897 11.8904 29.7243 11.2456 29.9296C10.0147 30.1935 8.75445 30.6921 7.67006 30.7801C7.4356 30.7801 7.17183 30.8387 6.93737 30.8681C6.6736 30.9267 6.43914 30.9854 6.20468 31.044C5.97022 31.132 5.73575 31.22 5.50129 31.308C5.26683 31.396 5.03237 31.5133 4.79791 31.6306C4.59275 31.7772 4.35829 31.8946 4.15313 32.0412C3.94798 32.1878 3.74282 32.3638 3.56697 32.5398C3.36183 32.6864 3.15666 32.8917 2.98082 33.0677C2.80497 33.273 2.62912 33.4489 2.48259 33.6542C2.33605 33.8889 2.1602 34.0942 2.04297 34.3288C1.89643 34.5341 1.74989 34.7687 1.63266 35.0033C1.51538 35.2673 1.3982 35.5019 1.31027 35.7659C1.22235 36.0005 1.13443 36.2644 1.0465 36.5284C0.987933 36.763 0.929225 36.9976 0.899968 37.2322C0.899968 37.2616 0.870615 37.2909 0.870615 37.3202C0.812044 37.5842 0.812044 37.9361 0.78269 38.1121C0.753337 38.3174 0.724121 38.4934 0.724121 38.6987C0.724121 38.816 0.724121 38.9626 0.753474 39.0799C0.782827 39.2852 0.812043 39.4612 0.870752 39.6372C0.929322 39.8131 0.98803 39.9891 1.0759 40.1651C1.0759 40.1944 1.0759 40.1944 1.0759 40.1944C1.16382 40.3704 1.28106 40.5464 1.39828 40.7223C1.51556 40.8983 1.63276 41.0743 1.77929 41.2503C1.92583 41.3969 2.10167 41.5728 2.27752 41.7195C2.45337 41.8955 2.62922 42.0421 2.83436 42.1887C3.53776 42.8046 3.7136 43.0099 4.62214 43.4792C4.76868 43.5672 4.91523 43.6258 5.09108 43.7138C5.12043 43.7138 5.14965 43.7432 5.179 43.7432C5.179 43.8018 5.179 43.8312 5.20836 43.8898C5.23771 44.1244 5.29628 44.3591 5.35489 44.5937C5.41346 44.8576 5.50144 45.0923 5.58937 45.2976C5.67729 45.4735 5.7359 45.6495 5.82383 45.8255C5.85318 45.8841 5.8824 45.9428 5.91175 45.9721C6.02903 46.2067 6.14621 46.412 6.26343 46.6173C6.40998 46.8226 6.55652 47.0279 6.70305 47.2332C6.84959 47.4092 7.02543 47.6145 7.20128 47.7904C7.37713 47.9664 7.55298 48.113 7.75814 48.289C7.75814 48.289 7.7875 48.3184 7.81671 48.3184C7.99256 48.4651 8.1684 48.6117 8.34425 48.729C8.5494 48.8756 8.75456 48.993 8.98902 49.1103C9.19418 49.2276 9.42864 49.3449 9.6631 49.4329C9.83895 49.5209 10.0441 49.5795 10.2493 49.6382C10.2786 49.6676 10.3078 49.6676 10.3665 49.6968C10.4838 49.7262 10.6303 49.7554 10.7475 49.7848C10.6596 51.3685 10.6302 52.8642 10.8648 53.3921C11.1286 53.9787 12.4181 52.1897 13.7077 50.1367C13.5318 52.1604 13.4146 54.5359 13.7077 55.2398C14.03 55.973 15.7885 53.6854 17.3125 51.1632C38.0917 46.3534 57.0539 60.7241 59.0468 81.0191C58.6658 77.8517 54.7679 76.092 52.9801 76.5319C52.1008 78.7022 50.6062 81.4883 48.2029 83.2187C48.4081 81.283 48.3202 79.2887 47.9098 77.3531C47.2651 80.0513 46.0048 82.5735 44.2757 84.7438C41.4914 84.949 38.7072 83.5999 37.2418 81.5763C37.1245 81.4883 37.0953 81.3124 37.0073 81.1951C36.9194 80.9897 36.8315 80.7845 36.7729 80.5792C36.6849 80.3739 36.6263 80.1686 36.597 79.9633C36.5677 79.758 36.5677 79.5527 36.5677 79.3181C36.5677 79.1714 36.5677 79.0248 36.5677 78.8782C36.597 78.6728 36.6556 78.4676 36.7142 78.2623C36.7728 78.057 36.8315 77.8517 36.9194 77.6464C37.0366 77.4411 37.1245 77.2358 37.2711 77.0305C37.7693 75.6227 37.7693 74.4789 36.8607 73.8044C36.6849 73.687 36.5091 73.5991 36.3039 73.5111C36.1866 73.4818 36.0401 73.4231 35.9229 73.3938C35.835 73.3644 35.7764 73.3351 35.6884 73.3058C35.4833 73.2472 35.2781 73.1884 35.073 73.1591C34.8678 73.1005 34.6627 73.0712 34.4575 73.0712C34.2524 73.0417 34.0179 73.0125 33.8127 73.0125C33.6662 73.0125 33.5197 73.0419 33.3731 73.0419C33.1387 73.0419 32.9335 73.0713 32.7283 73.1299C32.5232 73.1593 32.318 73.1885 32.1129 73.2472C31.9077 73.3059 31.7026 73.3646 31.4974 73.4526C31.2923 73.5405 31.1164 73.6285 30.9113 73.7165C30.7354 73.8045 30.5596 73.9218 30.3544 74.0098C23.5257 78.4676 27.5995 88.9084 32.2594 91.9292C30.501 92.2518 28.7132 92.6331 28.215 93.0143C28.1856 93.0437 28.1564 93.0729 28.1564 93.0729C29.4166 93.8355 30.7355 94.4807 32.1129 95.0379C33.9886 95.6538 35.9815 96.211 36.8608 96.4457V96.475C39.2933 96.9736 41.7552 97.1496 44.2464 97.0029C57.2297 96.0938 67.8684 86.2102 69.8027 73.1886C69.8613 73.4525 69.92 73.6872 69.9786 73.9511C70.0665 74.479 70.1837 75.0363 70.2423 75.5935C70.2423 75.5935 70.2423 75.5935 70.2423 75.6229C70.3009 75.8868 70.3303 76.1508 70.3596 76.3854C70.3596 76.444 70.3596 76.4734 70.3596 76.5028C70.389 76.7667 70.4182 77.0307 70.4182 77.2653C70.4475 77.5879 70.4768 77.9105 70.4768 78.2331C70.4768 78.3798 70.4768 78.5264 70.4768 78.7024C70.4768 78.849 70.5061 79.025 70.5061 79.1716C70.5061 79.3476 70.4768 79.5236 70.4768 79.6995C70.4768 79.8462 70.4768 79.9928 70.4768 80.1101C70.4768 80.3154 70.4474 80.4914 70.4474 80.6967C70.4474 80.814 70.4474 80.9313 70.418 81.0779C70.418 81.2833 70.3887 81.4885 70.3887 81.7232C70.3593 81.8111 70.3593 81.8991 70.3593 81.9871C70.33 82.2217 70.3007 82.427 70.2714 82.6617C70.2714 82.7497 70.2714 82.8376 70.242 82.9256C70.2126 83.2189 70.1541 83.4829 70.1248 83.7761V83.8055V83.8349C70.0662 84.0988 70.0075 84.3921 69.9489 84.6561C69.9489 84.6854 69.9489 84.7147 69.9489 84.7441C69.8903 85.008 69.8316 85.272 69.7731 85.5359C69.7731 85.5653 69.7437 85.6239 69.7437 85.6533C69.6851 85.9172 69.6264 86.1812 69.5386 86.4451C69.5386 86.4745 69.5386 86.5037 69.5386 86.5331C69.4507 86.8264 69.3627 87.0903 69.3041 87.3543C69.2748 87.3837 69.2748 87.4129 69.2748 87.4129C69.1868 87.7062 69.0989 87.9995 69.011 88.2927C68.8937 88.586 68.8058 88.85 68.6886 89.1433C68.5713 89.4365 68.4835 89.7298 68.3662 89.9938C68.2489 90.2871 68.1318 90.551 68.0145 90.8443H67.9851C67.8679 91.1082 67.7507 91.4015 67.6041 91.6655C67.5748 91.7534 67.5456 91.8121 67.5162 91.8708C67.4869 91.9002 67.4869 91.9294 67.4576 91.9587C65.5526 95.8007 62.7391 99.1734 59.2222 101.813C58.9877 101.96 58.7532 102.136 58.5188 102.312C58.4602 102.37 58.3722 102.4 58.3136 102.458C58.1085 102.605 57.9033 102.751 57.6689 102.898L57.7568 103.074H57.7861C58.1964 103.015 58.6067 102.957 59.017 102.898H59.0464C59.8084 102.781 60.5704 102.634 61.3324 102.487C61.5375 102.458 61.772 102.4 61.9772 102.341C62.1237 102.311 62.2409 102.282 62.3875 102.253C62.5926 102.223 62.7978 102.165 63.0029 102.136C63.1788 102.077 63.3546 102.048 63.5305 101.989C66.4613 101.285 69.3041 100.317 72.0297 99.1734C67.3698 105.538 61.1272 110.67 53.8296 114.043C57.2 113.808 60.5704 113.251 63.8236 112.312C75.6346 108.822 85.5699 100.874 91.5194 90.1697C90.3178 96.9445 87.6215 103.397 83.6356 109.028C86.4785 107.151 89.0869 104.98 91.4608 102.517C98.0257 95.654 102.334 86.9436 103.799 77.588C104.796 82.2218 105.089 87.0023 104.649 91.7241C125.81 62.1908 106.408 31.5723 98.2895 23.5071C98.2601 23.4485 98.2309 23.4191 98.2309 23.3605C98.2015 23.3899 98.2015 23.3899 98.2015 23.4191C98.2015 23.3897 98.2015 23.3897 98.1722 23.3605C98.1722 23.7124 98.1429 24.0644 98.1136 24.4163C98.0257 25.0908 97.9378 25.7361 97.8205 26.3813C97.674 27.0265 97.4982 27.6717 97.3223 28.3169C97.1172 28.9328 96.8827 29.578 96.6189 30.1939C96.3552 30.7805 96.0621 31.3964 95.7397 31.9829C95.4173 32.5402 95.0656 33.1267 94.6846 33.6546C94.3036 34.2119 93.8933 34.7398 93.483 35.2383C93.0434 35.7662 92.5745 36.2355 92.1055 36.7047C91.8125 36.9687 91.5487 37.2033 91.2556 37.4379C91.0211 37.6432 90.816 37.8192 90.5815 38.0245C90.054 38.4351 89.5264 38.8163 88.9403 39.1683C88.3834 39.5202 87.7973 39.8722 87.2111 40.1654C86.5957 40.4587 85.9802 40.7227 85.3648 40.9866C84.7493 41.2212 84.1045 41.4265 83.4597 41.6025C82.815 41.7785 82.1409 41.9251 81.4961 42.0424C80.822 42.1598 80.148 42.2184 79.5032 42.2771C79.0343 42.3064 78.5654 42.3357 78.0964 42.3357C77.4223 42.3357 76.7483 42.2771 76.1035 42.2183C75.4294 42.1597 74.7553 42.0717 74.1106 41.925C73.4365 41.8077 72.7917 41.6317 72.1469 41.4265H72.1176C72.7624 41.3678 73.4071 41.3091 74.0519 41.1918C74.726 41.0745 75.3707 40.9279 76.0155 40.7519C76.6603 40.5759 77.3051 40.3706 77.9205 40.136C78.5653 39.9014 79.1808 39.6081 79.7669 39.3148C80.3824 39.0215 80.9392 38.6989 81.5254 38.347C82.0822 37.9657 82.6391 37.5845 83.1666 37.1739C83.6942 36.7633 84.1924 36.3234 84.6613 35.8541C85.1596 35.4142 85.5992 34.9156 86.0388 34.417C86.4784 33.8892 86.8887 33.3612 87.2697 32.8333C87.3283 32.7454 87.387 32.6281 87.4456 32.5401C87.7386 32.0708 88.0317 31.6016 88.2955 31.1323C88.6179 30.5458 88.911 29.9592 89.1747 29.3433C89.4385 28.7274 89.673 28.1115 89.8781 27.4663C90.0833 26.8504 90.2298 26.2052 90.3763 25.56C90.4936 24.8855 90.6108 24.2402 90.6694 23.595C90.728 22.9205 90.7867 22.2459 90.7867 21.6007C90.7867 21.1315 90.7573 20.6622 90.7281 20.193C90.6696 19.5184 90.5816 18.8732 90.4937 18.228C90.3764 17.5535 90.2299 16.9082 90.054 16.263C89.8489 15.6471 89.6437 15.0019 89.4093 14.386C89.1748 13.7701 88.8817 13.1543 88.5886 12.5677C88.2663 11.9811 87.9439 11.3946 87.5922 10.8373C87.2112 10.2801 86.8302 9.75221 86.4199 9.2243C85.9803 8.72573 85.5406 8.22715 85.0717 7.72858C84.8373 7.49396 84.5735 7.23 84.3097 6.99538C82.9909 5.9689 81.6134 5.00107 80.2359 4.12123C80.0308 4.00388 79.8549 3.91593 79.6498 3.82794C78.6826 3.21207 77.7741 2.88945 76.8655 2.59618L76.8655 2.59601Z" fill="#E0234E"/>
</svg>
